<?xml version="1.0" standalone="no"?>
<!DOCTYPE svg PUBLIC "-//W3C//DTD SVG 20010904//EN"
 "http://www.w3.org/TR/2001/REC-SVG-20010904/DTD/svg10.dtd">
<svg version="1.0" xmlns="http://www.w3.org/2000/svg"
 width="691.000000pt" height="167.000000pt" viewBox="0 0 691.000000 167.000000"
 preserveAspectRatio="xMidYMid meet">

<g transform="translate(0.000000,167.000000) scale(0.100000,-0.100000)"
fill="#000000" stroke="none">
<path d="M0 835 l0 -835 3455 0 3455 0 0 835 0 835 -3455 0 -3455 0 0 -835z
m670 256 c0 -214 3 -396 6 -405 5 -13 22 -16 85 -16 l79 0 0 405 0 405 218 -2
217 -3 5 -400 5 -400 68 -3 c38 -2 67 1 67 7 0 5 -5 32 -12 60 -15 66 3 194
39 269 31 67 110 146 171 172 26 12 58 26 71 33 15 8 76 12 165 12 141 0 152
-2 246 -43 141 -63 240 -214 240 -368 l0 -64 -279 0 c-214 0 -280 -3 -283 -12
-3 -7 0 -33 6 -58 8 -34 18 -48 39 -58 38 -18 88 -8 111 23 l19 25 183 0 c121
0 184 -4 184 -10 0 -22 -40 -89 -77 -127 -99 -105 -286 -158 -469 -133 -47 6
-93 15 -102 19 -10 5 -35 17 -57 27 -58 28 -142 110 -167 166 -12 26 -25 48
-30 48 -4 0 -8 -97 -8 -215 l0 -215 -202 2 -203 3 -3 81 -3 82 -307 4 c-286 5
-310 6 -347 26 -51 26 -78 56 -98 110 -15 37 -17 98 -17 492 l0 450 220 0 220
0 0 -389z m4085 115 c88 -30 132 -68 159 -136 30 -76 -3 -169 -75 -209 -22
-12 -39 -24 -39 -26 0 -3 17 -13 39 -24 54 -28 87 -72 100 -131 20 -93 -38
-196 -132 -235 -23 -9 -49 -21 -58 -25 -44 -23 -181 -32 -290 -21 -61 7 -118
16 -127 20 -9 5 -39 19 -65 31 -27 12 -50 27 -53 34 -4 9 58 159 72 175 1 2
15 -6 31 -17 75 -53 156 -66 204 -31 33 23 38 61 14 93 -13 17 -27 20 -95 19
l-80 0 0 104 c0 105 0 105 23 98 81 -26 150 -3 155 52 4 36 -13 52 -63 60 -34
5 -153 -22 -165 -38 -3 -3 -14 -9 -26 -13 -19 -6 -25 2 -53 69 -36 86 -38 103
-13 111 9 3 24 9 32 13 107 55 379 69 505 27z m-1645 -11 c58 -37 86 -69 120
-140 87 -178 54 -478 -63 -587 -54 -50 -106 -68 -197 -68 -88 0 -149 20 -185
60 l-20 22 -5 -123 -5 -124 -150 -3 c-82 -2 -169 0 -192 3 l-43 6 0 490 0 489
175 0 175 0 0 -50 c0 -27 3 -50 7 -50 4 0 21 15 38 33 62 67 91 77 217 72 72
-3 93 -8 128 -30z m826 17 c10 -6 45 -23 76 -37 75 -35 150 -112 191 -194 27
-54 33 -80 36 -148 l3 -83 -280 0 c-263 0 -281 -1 -286 -18 -9 -29 18 -96 45
-110 42 -22 119 2 119 37 0 8 62 11 190 11 111 0 190 -4 190 -9 0 -15 -20 -65
-29 -71 -4 -3 -17 -19 -29 -37 -54 -77 -203 -145 -348 -158 -69 -7 -210 8
-243 25 -9 4 -34 16 -56 26 -22 10 -67 46 -100 79 -62 62 -95 131 -110 232 -9
59 12 188 41 249 32 69 107 144 174 175 65 31 85 38 115 43 53 8 281 -1 301
-12z m1434 -163 c0 -193 2 -195 63 -73 19 38 54 107 79 154 l44 85 167 3 167
2 0 -403 0 -404 -37 -7 c-21 -3 -104 -6 -185 -6 -141 0 -148 1 -159 21 -8 15
-10 69 -7 165 2 79 1 144 -3 144 -4 0 -27 -37 -52 -82 -24 -46 -54 -101 -67
-123 -12 -22 -31 -57 -43 -78 l-21 -37 -162 0 c-146 0 -163 2 -168 18 -3 9 -3
143 -1 297 2 154 4 328 5 388 l0 107 190 0 190 0 0 -171z m1218 39 l-3 -133
-62 -3 -63 -3 0 -265 c0 -252 -1 -265 -19 -272 -11 -4 -99 -6 -195 -4 l-176 3
0 269 c0 209 -3 270 -12 272 -7 1 -35 2 -63 3 l-50 1 -3 132 -3 132 326 0 326
0 -3 -132z"/>
<path d="M1822 1010 c-25 -10 -53 -66 -45 -87 4 -9 30 -13 94 -13 74 0 89 3
89 16 0 18 -18 53 -35 71 -17 17 -76 24 -103 13z"/>
<path d="M2783 1005 c-33 -23 -47 -80 -47 -195 1 -113 17 -170 54 -190 32 -17
67 -2 86 38 35 73 29 283 -10 334 -18 25 -57 31 -83 13z"/>
<path d="M3722 1010 c-25 -10 -53 -66 -45 -87 4 -9 29 -13 89 -13 105 0 115
13 61 82 -16 20 -74 31 -105 18z"/>
</g>
</svg>
